<svg width="40" height="39" viewBox="0 0 40 39" fill="none" xmlns="http://www.w3.org/2000/svg">
<path d="M34.3077 0.911011H5.6923C2.46153 0.911011 0 3.23357 0 6.28193V33.2817C0 36.3301 2.46153 38.6526 5.6923 38.6526H34.3077C37.5385 38.6526 40 36.3301 40 33.2817V6.28193C40 3.23357 37.5385 0.911011 34.3077 0.911011ZM20 31.1043C26.6154 31.1043 32 26.1689 32 20.2173C32 19.2012 31.8462 18.0399 31.5385 17.1689H34.9231V32.5559C34.9231 33.2817 34.3077 34.0075 33.3846 34.0075H6.61539C5.84616 34.0075 5.07693 33.4269 5.07693 32.5559V17.0238H8.61539C8.3077 18.0399 8.15385 19.056 8.15385 20.0721C8 26.1689 13.3846 31.1043 20 31.1043ZM20 26.7495C15.6923 26.7495 12.3077 23.556 12.3077 19.6367C12.3077 15.7173 15.6923 12.5238 20 12.5238C24.3077 12.5238 27.6923 15.7173 27.6923 19.6367C27.6923 23.7011 24.3077 26.7495 20 26.7495ZM34.7692 11.2174C34.7692 12.0883 34 12.8141 33.0769 12.8141H28.7692C27.8461 12.8141 27.0769 12.0883 27.0769 11.2174V7.29805C27.0769 6.42709 27.8461 5.70129 28.7692 5.70129H33.0769C34 5.70129 34.7692 6.42709 34.7692 7.29805V11.2174Z" fill="white"/>
</svg>
