<svg width="206" height="150" viewBox="0 0 206 150" fill="none" xmlns="http://www.w3.org/2000/svg">
<path d="M20.5595 0.510172C11.9218 2.04944 0 10.8323 0 26.9493C0 51.9398 19.9747 59.1833 32.3464 60.4057C50.6565 62.1713 62.3534 49.3139 62.3534 34.5098C62.3084 -1.57236 29.1972 -0.983821 20.5595 0.510172ZM30.8168 46.9598C20.4695 46.2354 14.6211 41.9345 14.6211 28.4433C14.6211 21.5619 17.0055 17.0799 25.5982 14.9974C34.1909 12.9148 48.1821 16.0386 48.1821 32.0651C48.1371 38.8107 43.0985 47.82 30.8168 46.9598Z" fill="#FFCC2D"/>
<path d="M85.5671 149.819L94.1598 115.547L97.309 115.774C97.309 115.774 102.977 149.819 102.932 149.819H99.5584C99.5584 149.819 94.9696 121.931 94.9696 121.976H94.7447C94.7447 121.976 90.9657 141.76 88.2214 149.819H85.5671Z" fill="white"/>
<path d="M101.628 146.514L101.223 149.819H86.8268V146.514H101.628Z" fill="white"/>
<path d="M140.633 41.2555L141.577 19.4794H138.158L136.719 54.6561L141.982 54.6108C141.982 54.6108 149.09 53.977 149.09 47.7294C149.045 43.2022 143.737 41.4365 140.633 41.2555ZM140.183 52.0303L140.588 43.8813C142.342 43.7907 145.626 43.836 145.626 48.0916C145.626 51.1249 141.802 52.1208 140.183 52.0303Z" fill="white"/>
<path d="M130.015 28.6245L133.299 28.2171C133.299 28.2171 134.559 18.9815 128.081 19.2078C121.603 19.4342 119.578 28.2171 119.623 37.3621C119.668 46.5072 120.478 55.29 127.271 55.1089C134.064 54.9278 132.625 45.9639 132.625 45.9639L129.205 46.3261C129.205 46.3261 130.6 51.6229 127.496 51.6229C123.807 51.6229 122.682 46.9599 122.997 37.5885C123.312 28.0812 123.717 22.558 128.081 22.558C130.51 22.558 130.015 28.6245 130.015 28.6245Z" fill="white"/>
<path d="M56.0101 45.7827C54.3905 41.1649 50.0717 41.1197 47.5524 41.7535L47.8223 34.5099C57.1798 33.4686 57.7646 20.2943 57.7646 20.2943H54.3455C54.3455 30.2543 49.4868 31.7935 47.9573 31.7935L48.2722 20.2943H44.7631L43.8184 54.6561H47.3724L47.5973 44.2887C54.9754 41.844 54.1656 54.5656 54.1656 54.5656H57.4947C57.4947 54.6561 58.0346 51.5323 56.0101 45.7827Z" fill="white"/>
<path d="M38.6446 93.6809C37.0251 89.0631 32.7062 89.0178 30.1869 89.6516L30.4568 82.408C40.4441 81.2762 40.804 67.6945 40.804 67.6945H37.385C37.385 77.6544 32.1214 79.6917 30.5918 79.6917L30.9067 67.7397H27.3976L26.4529 102.6H30.0069L30.2319 92.2322C37.6099 89.7875 36.8001 102.509 36.8001 102.509H40.1292C40.0842 102.554 40.6241 99.4305 38.6446 93.6809Z" fill="white"/>
<path d="M163.486 45.7827C161.867 41.1649 157.548 41.1197 155.029 41.7535L155.299 34.5099C164.656 33.4686 165.241 20.2943 165.241 20.2943H161.822C161.822 30.2543 156.963 31.7935 155.434 31.7935L155.748 20.2943H152.239L151.295 54.6561H154.849L155.074 44.2887C162.452 41.844 161.642 54.5656 161.642 54.5656H164.971C164.971 54.6561 165.511 51.5323 163.486 45.7827Z" fill="white"/>
<path d="M63.2982 54.8372H60.104L61.0937 20.8375H64.4678L63.2982 54.8372Z" fill="white"/>
<path d="M63.3431 34.7362C63.3431 34.7362 73.9153 34.9173 73.9153 27.0399C73.9153 22.241 68.1568 20.9734 64.3778 20.6112C62.4883 20.4754 61.0937 20.5207 61.0937 20.5207L61.0487 23.1917L64.2428 23.1012C64.2428 23.1012 70.5862 22.1958 70.5862 27.1305C70.5862 30.0732 67.572 32.0199 63.4781 32.0199L63.3431 34.7362Z" fill="white"/>
<path d="M130.285 102.419H127.091L128.081 68.4191L131.41 68.3738L130.285 102.419Z" fill="white"/>
<path d="M130.33 82.3178C130.33 82.3178 140.902 82.4989 140.902 74.6215C140.902 69.8226 135.144 68.5549 131.365 68.1928C129.475 68.0569 128.081 68.1022 128.081 68.1022L128.036 70.7733L131.23 70.6828C131.23 70.6828 137.573 69.7773 137.573 74.712C137.573 77.6547 134.559 79.6014 130.465 79.6014L130.33 82.3178Z" fill="white"/>
<path d="M94.0249 54.6109H90.6058L91.9555 20.2943L95.4196 20.3396L94.0249 54.6109Z" fill="white"/>
<path d="M97.219 10.9229C95.8694 11.285 94.6997 12.1905 94.6997 14.1825C94.6997 17.261 97.174 18.0759 98.6586 18.3023C99.1985 18.3928 99.3335 18.3475 99.3335 18.3475C99.6034 18.3023 99.8283 18.3023 100.098 18.2117C101.313 17.8043 102.303 16.9441 102.303 15.1332C102.348 10.6512 97.219 10.9229 97.219 10.9229ZM99.1535 15.8576C99.1085 15.8576 99.0635 15.9028 99.0186 15.9028C98.8836 15.9481 98.7486 15.9481 98.6137 15.9481C97.7139 15.9028 97.0841 15.6312 97.0841 14.4088C97.0841 13.8203 97.444 13.3676 97.9388 13.277C99.1535 13.277 100.008 13.4128 100.008 14.8163C99.9633 15.4048 99.5584 15.7217 99.1535 15.8576Z" fill="white"/>
<path d="M87.4566 10.9229C86.1069 11.285 84.9373 12.1905 84.9373 14.1825C84.9373 17.261 87.4116 18.0759 88.8962 18.3023C89.4361 18.3928 89.571 18.3475 89.571 18.3475C89.8409 18.3023 90.0659 18.3023 90.3358 18.2117C91.5505 17.8043 92.5402 16.9441 92.5402 15.1332C92.5852 10.6512 87.4566 10.9229 87.4566 10.9229ZM89.3911 15.8576C89.3461 15.8576 89.3011 15.9028 89.2561 15.9028C89.1211 15.9481 88.9862 15.9481 88.8512 15.9481C87.9515 15.9028 87.3216 15.6312 87.3216 14.4088C87.3216 13.8203 87.6815 13.3676 88.1764 13.277C89.3911 13.277 90.2458 13.4128 90.2458 14.8163C90.2458 15.4048 89.841 15.7217 89.3911 15.8576Z" fill="white"/>
<path d="M31.7165 46.0094C29.7821 46.5074 28.0725 47.8203 28.0725 50.6724C28.0725 55.0639 31.6266 56.241 33.786 56.5579C34.5508 56.6484 34.7307 56.6484 34.7757 56.6484C35.1356 56.5579 35.4955 56.5579 35.8554 56.4673C37.565 55.8788 39.0496 54.6111 39.0496 52.0306C39.0496 45.6472 31.7165 46.0094 31.7165 46.0094ZM34.5958 53.4341C34.5058 53.4793 34.4608 53.4793 34.3708 53.5246C34.1459 53.5699 33.876 53.5699 33.696 53.5699C32.2114 53.4793 31.1767 53.0266 31.1767 51.0346C31.1767 50.0386 31.8065 49.3143 32.5713 49.1785C34.5508 49.1785 35.9904 49.4048 35.9904 51.7137C35.9904 52.6644 35.3156 53.1624 34.5958 53.4341Z" fill="white"/>
<path d="M37.295 20.2943L37.475 28.6697C37.475 31.2503 37.43 32.9706 37.25 34.8721C36.9801 38.177 36.5752 42.0251 33.606 42.0251C30.6368 42.0251 30.2319 37.2262 29.917 34.8721C29.782 33.9213 29.6021 32.5179 29.6021 28.5792C29.6021 24.6405 29.917 20.2943 29.917 20.2943H26.5429C26.5429 20.2943 26.2729 25.5912 26.2729 28.5339C26.2729 31.4313 26.4529 33.4686 26.5429 34.8268C27.0377 41.1197 28.4324 44.6056 33.651 44.6056C38.4197 44.6056 40.1742 41.2102 40.7141 34.7815C40.894 32.6084 40.894 31.0239 40.894 28.6245L40.6691 20.3396L37.295 20.2943Z" fill="white"/>
<path d="M50.2066 93.4546C48.2722 93.9526 46.5626 95.2655 46.5626 98.1176C46.5626 102.509 50.1167 103.686 52.2761 104.003C53.0409 104.094 53.2208 104.094 53.2658 104.094C53.6257 104.003 53.9856 104.003 54.3455 103.913C56.0551 103.324 57.5397 102.056 57.5397 99.4758C57.5847 93.0924 50.2066 93.4546 50.2066 93.4546ZM53.0859 100.879C52.9959 100.925 52.9509 100.925 52.8609 100.97C52.636 101.015 52.3661 101.015 52.1861 101.015C50.7015 100.925 49.6668 100.472 49.6668 98.4798C49.6668 97.4838 50.2966 96.7595 51.0614 96.6236C53.0409 96.6236 54.4805 96.85 54.4805 99.1589C54.4805 100.11 53.8507 100.608 53.0859 100.879Z" fill="white"/>
<path d="M55.7851 67.74L55.9651 76.1154C55.9651 78.6959 55.9201 80.4163 55.7401 82.3177C55.4702 85.6226 55.0653 89.4708 52.0961 89.4708C49.1269 89.4708 48.722 84.6719 48.4071 82.3177C48.2721 81.367 48.0922 79.9636 48.0922 76.0249C48.0922 72.1314 48.4071 67.74 48.4071 67.74H45.033C45.033 67.74 44.7631 73.0369 44.7631 75.9796C44.7631 78.877 44.943 80.9143 45.033 82.2725C45.5279 88.5653 46.9225 92.0513 52.1411 92.0513C56.9098 92.0513 58.6643 88.6559 59.2042 82.2272C59.3842 80.0541 59.3842 78.4696 59.3842 76.0701L59.1592 67.7853L55.7851 67.74Z" fill="white"/>
<path d="M114.314 93.7263C112.38 94.2243 110.67 95.5372 110.67 98.3894C110.67 102.781 114.224 103.958 116.384 104.275C117.149 104.365 117.329 104.365 117.374 104.365C117.734 104.275 118.093 104.275 118.453 104.184C120.163 103.596 121.647 102.328 121.647 99.7475C121.692 93.3641 114.314 93.7263 114.314 93.7263ZM117.239 101.106C117.149 101.151 117.104 101.151 117.014 101.196C116.789 101.242 116.519 101.242 116.339 101.242C114.854 101.151 113.82 100.698 113.82 98.7063C113.82 97.7103 114.449 96.9859 115.214 96.8501C117.194 96.8501 118.633 97.0765 118.633 99.3854C118.588 100.381 117.958 100.834 117.239 101.106Z" fill="white"/>
<path d="M119.938 68.0115L120.118 76.3869C120.118 78.9674 120.073 80.6878 119.893 82.5892C119.623 85.8941 119.218 89.7423 116.249 89.7423C113.28 89.7423 112.875 84.9434 112.56 82.5892C112.425 81.6385 112.245 80.2351 112.245 76.2963C112.245 72.3576 112.56 68.0115 112.56 68.0115H109.186C109.186 68.0115 108.916 73.3084 108.916 76.2511C108.916 79.1485 109.096 81.1858 109.186 82.544C109.681 88.8368 111.075 92.3228 116.294 92.3228C121.063 92.3228 122.817 88.9274 123.357 82.4987C123.537 80.3256 123.537 78.7411 123.537 76.3416L123.312 68.0567L119.938 68.0115Z" fill="white"/>
<path d="M182.336 20.3395L172.709 47.005L173.744 20.3395H170.37L169.2 54.6108H172.664L182.561 26.406L181.886 54.6108H185.216L185.71 20.3395H182.336Z" fill="white"/>
<path d="M175.993 68.1926L166.366 94.8128L167.4 68.1473H164.071L162.856 102.464H166.321L176.263 74.2591L175.588 102.419L178.872 102.464L179.367 68.1926H175.993Z" fill="white"/>
<path d="M82.8672 68.0567L79.6731 67.8303L78.2784 101.83L81.6076 102.102L82.8672 68.0567Z" fill="white"/>
<path d="M81.4734 88.1124C81.4734 88.1124 92.0456 88.701 91.4607 96.5331C91.1008 101.332 85.2974 102.192 81.5184 102.237C79.6289 102.283 78.2343 102.102 78.2343 102.102L78.3692 99.4306L81.5634 99.7475C81.5634 99.7475 87.8167 101.106 88.1766 96.1709C88.4015 93.2282 85.4773 91.0551 81.4284 90.7835L81.4734 88.1124Z" fill="white"/>
<path d="M99.2436 102.237H96.1394L96.9492 68.0114H100.098L99.2436 102.237Z" fill="white"/>
<path d="M91.0557 68.0116L105.407 67.74V70.3658L91.0107 70.5922L91.0557 68.0116Z" fill="white"/>
<path d="M63.0733 131.529C63.0733 129.265 62.9833 127.545 62.8483 126.232V125.87C62.8483 125.689 62.8034 125.462 62.8034 125.281C62.3085 119.034 60.9139 115.593 55.7852 115.593C51.0615 115.593 49.307 118.943 48.7671 125.327C48.5872 127.5 48.5872 129.039 48.5872 131.438V132.253C48.5872 132.887 48.5872 133.476 48.5872 133.974C48.5872 136.237 48.6771 137.958 48.8121 139.271V139.633C48.8121 139.814 48.8571 140.04 48.8571 140.221C49.3519 146.469 50.7466 149.91 55.8752 149.91C60.5989 149.91 62.3535 146.559 62.8933 140.176C63.0733 138.003 63.0733 136.464 63.0733 134.064V133.249C63.0733 132.615 63.0733 132.027 63.0733 131.529ZM55.8302 146.514C52.906 146.514 52.4561 142.621 52.1862 140.267C52.1862 140.176 51.9613 136.328 51.9613 132.525C51.9613 128.903 52.1412 125.372 52.1412 125.281C52.4111 122.022 52.816 119.034 55.7402 119.034C58.6645 119.034 59.1143 122.927 59.3843 125.281C59.3843 125.372 59.6092 129.039 59.6092 132.706C59.6092 136.418 59.4293 140.176 59.4293 140.267C59.1593 143.526 58.7544 146.514 55.8302 146.514Z" fill="white"/>
<path d="M76.3897 41.1197L83.8127 40.4858L84.2176 43.0211L76.1198 43.3833L76.3897 41.1197Z" fill="white"/>
<path d="M87.4117 54.8373L82.8679 20.3849L79.3588 20.068L72.7456 54.792H75.6248L80.4835 27.3569L80.7985 27.3116L83.7677 54.7015L87.4117 54.8373Z" fill="white"/>
<path d="M36.5302 150H33.2461L33.696 115.638H37.1151L36.5302 150Z" fill="white"/>
<path d="M28.7024 133.023C28.7024 131.212 27.8926 118.083 35.1807 120.347L35.1357 117.766C32.6164 117.178 28.7924 117.404 26.8129 121.841C25.1484 125.553 25.1934 130.624 25.1934 133.068C25.1934 135.513 25.2383 139.904 26.8129 143.436C28.7924 147.872 32.6164 148.099 35.1357 147.51L35.1807 144.93C28.2076 147.057 28.7024 134.834 28.7024 133.023Z" fill="white"/>
<path d="M41.6591 133.023C41.6591 131.212 42.4688 118.083 35.1808 120.347L35.2258 117.766C37.7451 117.178 41.5691 117.404 43.5485 121.841C45.2131 125.553 45.1681 130.624 45.1681 133.068C45.1681 135.513 45.1231 139.904 43.5485 143.436C41.5691 147.872 37.7451 148.099 35.2258 147.51L35.1808 144.93C42.1539 147.057 41.6591 134.834 41.6591 133.023Z" fill="white"/>
<path d="M74.95 102.509L70.4512 67.604L66.9421 67.2871L60.3289 102.509H63.2081L67.9318 74.2591L68.2467 74.2138L71.3509 102.509H74.95Z" fill="white"/>
<path d="M113.145 20.2942L112.425 40.4857L104.102 34.5097L104.462 20.2489H100.998L100.098 54.8371H103.517L103.967 38.3579L112.155 44.4244L111.75 54.8371H115.214L116.519 20.3394L113.145 20.2942Z" fill="white"/>
<path d="M79.4938 114.869L78.774 135.06L70.4962 129.084L70.8111 114.823H67.347L66.4473 149.411H69.8663L70.3162 132.932L78.504 138.999L78.0992 149.411H81.5632L82.8679 114.914L79.4938 114.869Z" fill="white"/>
<path d="M155.748 68.1473L155.029 88.3842L146.751 82.4082L147.066 68.1473H143.647L142.702 102.69H146.121L146.571 86.2563L154.804 92.2776L154.399 102.69H157.818L159.168 68.2379L155.748 68.1473Z" fill="white"/>
<path d="M202.626 20.3395L192.998 47.005L194.033 20.3395H190.704L189.489 54.6108H192.953L202.896 26.406L202.221 54.6108H205.505L206 20.3395H202.626Z" fill="white"/>
<path d="M200.601 13.6393C200.511 15.1785 200.241 16.6725 198.532 16.6725C196.507 16.6725 196.193 15.2238 196.148 13.594L193.898 13.8656C194.123 16.9894 195.383 19.1172 198.532 19.1172C202.131 19.1172 202.851 16.3556 202.986 13.9109L200.601 13.6393Z" fill="white"/>
<path d="M196.148 68.1924L186.52 94.8579L187.6 68.1924H184.226L183.011 102.464H186.52L196.418 74.2589L195.743 102.418L199.027 102.464L199.522 68.1924H196.148Z" fill="white"/>
<path d="M194.168 61.447C194.078 62.9863 193.808 64.4803 192.099 64.4803C190.074 64.4803 189.759 63.0315 189.714 61.4017L187.465 61.6734C187.69 64.7972 188.95 66.925 192.099 66.925C195.698 66.925 196.418 64.1634 196.553 61.7186L194.168 61.447Z" fill="white"/>
<path d="M165.781 127.726L126.506 126.956L125.562 115.366L168.255 117.675L165.781 127.726Z" fill="#A3D2D9"/>
<path d="M157.053 146.605L117.824 145.835L116.879 134.291L159.527 136.554L157.053 146.605Z" fill="#A3D2D9"/>
</svg>
