<svg width="40" height="40" viewBox="0 0 40 40" fill="none" xmlns="http://www.w3.org/2000/svg">
<path fill-rule="evenodd" clip-rule="evenodd" d="M7 0C3.13401 0 0 3.13401 0 7V33C0 36.866 3.13401 40 7 40H33C36.866 40 40 36.866 40 33V7C40 3.13401 36.866 0 33 0H7ZM37.9414 15.1364C37.9717 15.5748 38 15.9839 38 16.3636V19.5V22.6364C38 23.4545 38 24.4091 37.8686 25.5C37.8686 26.7273 37.7372 27.6818 37.4745 28.6363C37.2117 29.7273 36.6861 30.5455 36.0292 31.2273C35.3723 31.9091 34.4526 32.3182 33.5329 32.4545C30.6423 32.8636 26.0438 33 20 33C13.9562 33 9.48904 32.8636 6.46715 32.4545C5.54744 32.3182 4.62774 31.9091 3.9708 31.2273C3.18248 30.5455 2.78831 29.7273 2.52554 28.6363C2.39427 27.6826 2.26301 26.5928 2.13174 25.5029L2.13139 25.5C2.13139 24.9154 2.09366 24.3699 2.05863 23.8636C2.0283 23.4252 2 23.0161 2 22.6364V19.5V16.3636C2 15.5454 2.00001 14.5909 2.13139 13.5C2.13139 12.2727 2.26277 11.3182 2.52554 10.3636C2.78831 9.27272 3.31387 8.45455 3.9708 7.77273C4.62774 7.09091 5.54744 6.68181 6.46715 6.54545C9.35766 6.13635 13.9562 6 20 6C26.0438 6 30.511 6.13635 33.5329 6.54545C34.4526 6.68181 35.3723 7.09091 36.0292 7.77273C36.8175 8.45455 37.2117 9.27272 37.4745 10.3636C37.6058 11.3182 37.7373 12.4091 37.8686 13.5C37.8686 14.0846 37.9064 14.6301 37.9414 15.1364ZM26.9635 20.5909L16.584 27.2727C16.4526 27.4091 16.1898 27.5455 15.927 27.5455C15.6642 27.5455 15.5329 27.5454 15.2701 27.4091C14.8759 27.1364 14.6131 26.7273 14.6131 26.1818V12.6818C14.6131 12.1364 14.8759 11.7273 15.2701 11.4545C15.6642 11.1818 16.1898 11.1818 16.584 11.4545L26.9635 18.1364C27.3577 18.4091 27.6204 18.8182 27.6204 19.2273C27.6204 19.6364 27.3577 20.3182 26.9635 20.5909Z" fill="white"/>
</svg>
